<svg xmlns="http://www.w3.org/2000/svg" viewBox="0 0 115.68 40.44"><defs><style>.cls-1{fill:#2c3138;}</style></defs><g id="Layer_2" data-name="Layer 2"><g id="Menus"><g id="logo_full"><g id="Logo"><path class="cls-1" d="M55.08,7.91a24.38,24.38,0,0,0,1-3.53c0-2.38-2.21-2.44-4.59-2.8L52,.26H62.72s9.49,26.31,12.71,35.05c1.07,2.93,3.87,5.13,5.81,5.13H75.46c-4.46,0-5.8-3.94-6.28-5.26C68.54,33.39,66.6,28,66.6,28H51.38L46.9,40.44H43.2ZM52.39,25.22H65.58L58.78,7.79Z"/><path class="cls-1" d="M80.54,8.38c0-5.91-.11-5.91-5.67-6.8L74.38.26H92.6c6.87,0,14.15,1.62,14.15,9.67,0,5.85-4.24,8.12-7.16,9.08v.12c4.23.83,9.19,3,9.19,10.62,0,10.69-12.12,10.69-17,10.69H87.11c-6.6,0-6.57-4.12-6.57-5.25Zm6.57,9.43h4c5.13,0,9.07-1.67,9.07-7.58,0-5.37-3-7.16-8.47-7.16-3.59,0-4.6.18-4.6,3.1Zm0,17.37c0,2.45,2.45,2.45,5.73,2.45,6.57,0,9.37-2.92,9.37-9,0-5.91-4.41-8-9.67-8H87.11Z"/><path class="cls-1" d="M17,.26l-.49,1.32c5.49.89,5.67.89,5.67,6.8v26.8c0,1.14,0,5.22,6.33,5.26h5.31l.55-1.5h-.59c-4.14,0-5-.91-5-5.55V20.86H41l1-2.81H28.76V6.17c0-2.86.77-3.1,3.76-3.1h4.65c3.88,0,6.45,1.25,6.45,6h1.67L48.51.26Z"/><path class="cls-1" d="M.47.93,0,2.29c5.79.78,6,.84,6,5.85v32.3h.16c6.41,0,6.41-4.12,6.41-5.26V1.58L13.12,0Z"/><path class="cls-1" d="M112.26,6.49a2.6,2.6,0,0,0,1-.2,2.5,2.5,0,0,0,.82-.58,2.58,2.58,0,0,0,.55-.87,2.89,2.89,0,0,0,.21-1.11,2.87,2.87,0,0,0-.21-1.1,2.58,2.58,0,0,0-.55-.87,2.5,2.5,0,0,0-.82-.58,2.6,2.6,0,0,0-1-.2,2.64,2.64,0,0,0-1,.2,2.61,2.61,0,0,0-.82.58,2.75,2.75,0,0,0-.55.87,3.15,3.15,0,0,0,0,2.21,2.75,2.75,0,0,0,.55.87,2.61,2.61,0,0,0,.82.58,2.64,2.64,0,0,0,1,.2m0,.67a3.34,3.34,0,0,1-1.33-.28,3.5,3.5,0,0,1-1.82-1.81,3.34,3.34,0,0,1-.27-1.34,3.33,3.33,0,0,1,.27-1.33A3.5,3.5,0,0,1,110.93.59a3.33,3.33,0,0,1,1.33-.27,3.29,3.29,0,0,1,1.33.27,3.42,3.42,0,0,1,1.09.73,3.49,3.49,0,0,1,.73,1.08,3.33,3.33,0,0,1,.27,1.33,3.34,3.34,0,0,1-.27,1.34,3.49,3.49,0,0,1-.73,1.08,3.42,3.42,0,0,1-1.09.73,3.3,3.3,0,0,1-1.33.28"/><path class="cls-1" d="M112.66,2.92a.64.64,0,0,1-.66.64h-.36V2.33H112a.58.58,0,0,1,.66.59m1.18,2.75a9.52,9.52,0,0,0-1.18-1.79h0a1.12,1.12,0,0,0,.73-1c0-.61-.39-1.12-1.41-1.12h-1.07v4h.73V4.11H112c.15,0,.43.54,1,1.56Z"/></g></g></g></g></svg>